<svg width="68" height="40" viewBox="0 0 68 40" fill="none" xmlns="http://www.w3.org/2000/svg">
<g clip-path="url(#clip0_371_191)">
<path d="M67.7778 39.3717C67.3528 39.7906 66.9279 40 66.2905 40C65.4406 40 64.3783 40 63.5284 40C62.891 40 62.466 39.7906 62.0411 39.1623C60.3413 36.0209 58.6416 33.089 56.9418 29.9476C56.7294 29.5288 56.5169 29.3194 55.8795 29.3194C41.2191 29.3194 26.3462 29.3194 11.6858 29.3194C11.2609 29.3194 11.0484 29.5288 10.6235 29.9476C8.92372 33.089 7.22396 36.0209 5.52421 39.1623C5.31174 39.7906 4.8868 40 4.24939 40C3.18704 40 2.33716 40 1.27482 40C0.21247 40 -0.21247 39.3717 0.21247 38.534C1.06235 36.0209 1.91223 33.2984 2.7621 30.7853C2.97457 29.9476 3.39951 29.7382 4.03692 29.9476C4.67433 30.1571 4.8868 30.5759 4.67433 31.4136C4.03692 33.5079 3.39951 35.6021 2.54963 37.6963C2.54963 37.6963 2.54963 37.9058 2.33716 38.1152C2.7621 38.1152 3.39951 38.1152 3.82445 38.1152C4.03692 38.1152 4.24939 37.6963 4.24939 37.4869C7.6489 31.4136 11.0484 25.3403 14.4479 19.267C14.8729 18.6387 15.2978 18.0105 15.7227 17.1728C14.8729 17.1728 14.2355 17.1728 13.5981 17.1728C12.3232 17.1728 11.0484 17.1728 9.7736 17.1728C9.34866 17.1728 9.13619 17.3822 9.13619 17.801C8.07384 20.9424 7.22396 24.0838 6.16162 27.2251C6.16162 27.4346 6.16162 27.644 5.94915 27.644C5.73668 28.2723 5.31174 28.4817 4.67433 28.2723C4.03692 28.0628 3.82445 27.644 4.03692 27.0157C4.8868 24.0838 5.94915 21.1518 7.01149 18.0105C7.01149 17.801 7.22396 17.5916 7.22396 17.1728C5.31174 17.1728 3.61198 17.1728 1.69976 17.1728C1.48729 17.1728 1.27482 17.1728 1.06235 17.1728C0.424939 16.9634 0 16.7539 0 16.1257C0 15.0785 0 14.2408 0.21247 13.1937C0.637409 11.0995 2.54963 9.42408 4.67433 9.42408C5.73668 9.42408 7.01149 9.42408 8.28631 9.42408C7.01149 7.95812 7.22396 6.49215 7.22396 4.81675C7.22396 3.56021 7.22396 2.30367 7.22396 1.04712C7.22396 0.418848 7.6489 0 8.49878 0C10.8359 0 12.9606 0 15.2978 0C16.5726 0 16.7851 0.209424 16.9976 1.46597C17.4225 1.46597 17.8474 1.46597 18.2724 1.46597C19.7597 1.46597 20.6095 2.51309 20.822 3.76963C20.822 4.60733 20.822 5.2356 20.822 6.0733C20.6095 7.32984 19.5472 8.37696 18.2724 8.37696C18.0599 8.37696 17.8474 8.37696 17.635 8.37696C16.5726 8.37696 16.5726 8.37696 16.1477 9.42408C19.1223 9.42408 22.0968 9.42408 24.8589 9.42408C24.8589 9.00524 24.8589 8.58639 25.0714 8.37696C25.4963 6.70157 26.7712 5.44503 28.4709 5.44503C29.5333 5.44503 30.8081 5.44503 31.8704 5.44503C32.5078 5.44503 32.9328 5.86387 32.9328 6.49215C32.9328 7.12042 32.5078 7.53927 31.658 7.53927C30.5956 7.53927 29.5333 7.53927 28.4709 7.53927C27.1961 7.53927 26.5587 8.37696 26.7712 9.63351C31.4455 9.63351 36.1198 9.63351 40.5817 9.63351C40.7942 8.37696 40.1567 7.53927 38.8819 7.53927C37.8196 7.53927 36.9697 7.53927 35.9073 7.53927C35.0575 7.53927 34.6325 7.12042 34.6325 6.49215C34.6325 5.86387 35.0575 5.44503 35.9073 5.44503C36.9697 5.44503 37.8196 5.44503 38.8819 5.44503C41.2191 5.44503 42.7064 6.911 42.7064 9.00524C42.7064 9.21466 42.7064 9.21466 42.7064 9.42408C44.4061 9.42408 45.8934 9.42408 47.5932 9.42408C46.3184 6.70157 46.9558 3.76963 46.7433 1.04712C46.7433 0.418848 47.1682 0 47.8056 0C50.3553 0 52.6924 0 55.2421 0C55.8795 0 56.3044 0.418848 56.3044 1.46597C56.7294 1.46597 57.1543 1.46597 57.5792 1.46597C59.0665 1.46597 60.1289 2.51309 60.1289 3.97906C60.1289 4.60733 60.1289 5.2356 60.1289 6.0733C60.5538 7.32984 59.4915 8.37696 58.0042 8.37696C57.7917 8.37696 57.5792 8.37696 57.5792 8.37696C56.7294 8.16754 56.092 8.58639 55.8795 9.42408C56.092 9.42408 56.3044 9.42408 56.3044 9.42408C58.4291 9.42408 60.5538 9.42408 62.6785 9.42408C65.2281 9.42408 66.9279 10.6806 67.5653 13.1937V13.4031C67.5653 14.4503 67.5653 15.4974 67.5653 16.3351C67.1404 16.7539 66.7154 16.9634 66.078 16.9634C64.8032 16.9634 63.7409 16.9634 62.466 16.9634C61.8286 16.9634 61.1912 16.9634 60.5538 16.9634C60.5538 17.1728 60.5538 17.1728 60.5538 17.3822C62.891 24.2932 65.0157 31.2042 67.3528 38.3246C67.3528 38.534 67.5653 38.534 67.5653 38.7435C67.7778 38.9529 67.7778 39.1623 67.7778 39.3717ZM65.8656 15.0785C66.078 12.7749 65.0157 11.5183 62.891 11.5183C43.5563 11.5183 24.2215 11.5183 4.8868 11.5183C2.7621 11.5183 1.48729 13.1937 2.1247 15.0785C2.33716 15.0785 2.7621 15.0785 2.97457 15.0785C15.7227 15.0785 28.4709 15.0785 41.2191 15.0785C41.4316 15.0785 41.644 15.0785 41.8565 15.0785C42.4939 15.0785 42.9188 15.4974 42.9188 16.1257C42.9188 16.5445 42.4939 16.9634 41.8565 17.1728C41.644 17.1728 41.4316 17.1728 41.2191 17.1728C33.5702 17.1728 26.1338 17.1728 18.4848 17.1728C18.0599 17.1728 17.8474 17.3822 17.4225 17.801C15.7227 20.9424 14.023 23.8743 12.3232 27.0157C12.3232 27.2251 12.1108 27.4346 11.8983 27.644C26.3462 27.644 40.7941 27.644 55.0296 27.644C55.0296 27.4346 55.0296 27.4346 55.0296 27.4346C53.1174 24.2932 51.4176 20.9424 49.5054 17.801C49.5054 17.5916 49.0805 17.3822 48.868 17.3822C47.5932 17.3822 46.5308 17.3822 45.256 17.3822C44.6186 17.3822 44.1937 16.9634 44.1937 16.3351C44.1937 15.7068 44.6186 15.4974 45.256 15.4974C45.4685 15.4974 45.681 15.4974 45.8934 15.4974C52.055 15.4974 58.2166 15.4974 64.3783 15.4974C65.2281 15.0785 65.4406 15.0785 65.8656 15.0785ZM52.055 17.1728C52.2675 17.3822 52.2675 17.5916 52.48 17.801C53.7548 19.8953 54.8171 22.199 56.092 24.2932C58.6416 28.6911 60.9788 33.089 63.5284 37.4869C63.7409 37.6963 63.9533 37.9058 64.1658 38.1152C64.5907 38.1152 65.0157 38.1152 65.4406 38.1152C65.4406 37.9058 65.2281 37.6963 65.2281 37.4869C64.8032 36.0209 64.3783 34.555 63.7409 33.089C62.0411 28.0628 60.3413 22.8272 58.8541 17.801C58.8541 17.5916 58.8541 17.1728 58.2167 17.1728C56.3044 17.1728 54.1797 17.1728 52.055 17.1728ZM9.34866 1.88482C9.34866 3.56021 9.34866 5.02618 9.34866 6.70157C9.34866 8.37696 10.6235 9.42408 12.1108 9.42408C13.598 9.42408 14.8729 8.37696 14.8729 6.70157C14.8729 5.2356 14.8729 3.76963 14.8729 2.51309C14.8729 2.30367 14.8729 2.09424 14.8729 1.88482C12.9606 1.88482 11.2609 1.88482 9.34866 1.88482ZM49.0805 2.09424C49.0805 3.56021 49.0805 5.02618 49.0805 6.70157C49.0805 6.911 49.0805 6.911 49.0805 7.12042C49.2929 8.58639 50.5677 9.84293 52.055 9.63351C53.5423 9.63351 54.6047 8.37696 54.8171 6.911C54.8171 5.44503 54.8171 4.18848 54.8171 2.72251C54.8171 2.51309 54.8171 2.30366 54.8171 2.09424C52.6924 2.09424 50.9927 2.09424 49.0805 2.09424ZM16.7851 6.49215C17.21 6.49215 17.635 6.49215 18.0599 6.49215C18.4848 6.49215 18.6973 6.28272 18.6973 5.86387C18.6973 5.2356 18.6973 4.60733 18.6973 4.18848C18.6973 3.97906 18.4848 3.56021 18.0599 3.56021C17.635 3.56021 17.21 3.56021 16.7851 3.56021C16.7851 4.39791 16.7851 5.44503 16.7851 6.49215ZM56.7294 6.49215C57.1543 6.49215 57.5792 6.49215 58.0042 6.49215C58.4291 6.49215 58.6416 6.28272 58.6416 5.86387C58.6416 5.2356 58.6416 4.81675 58.6416 4.18848C58.6416 3.97906 58.4291 3.56021 58.2167 3.56021C57.7917 3.56021 57.3668 3.56021 56.7294 3.56021C56.7294 4.39791 56.7294 5.44503 56.7294 6.49215Z" fill="#F05625"/>
</g>
<defs>
<clipPath id="clip0_371_191">
<rect width="67.7778" height="40" fill="white"/>
</clipPath>
</defs>
</svg>
